<svg width="512" height="512" viewBox="0 0 512 512" fill="none" xmlns="http://www.w3.org/2000/svg">
  <rect width="512" height="512" rx="120" fill="#FFF8F2"/>
  <path d="M97 116H236C283.496 116 322 154.504 322 202C322 230.96 307.722 256.584 285.817 272.16L313 312.5L265.5 346L215.5 272H175V390H97V116ZM175 194H232C245.255 194 256 183.255 256 170C256 156.745 245.255 146 232 146H175V194Z" fill="#0B1B2D"/>
  <path d="M301.413 297.629L358.328 237.556L409.409 390H348.1L301.413 297.629Z" fill="#0B1B2D"/>
  <path d="M192 390L335 225L295 390H192Z" fill="#FF8D2B"/>
  <path d="M360 242L437 136L399 390H350L323 333L360 242Z" fill="#0B1B2D"/>
</svg>
